<svg xmlns="http://www.w3.org/2000/svg" viewBox="0 0 120 140" fill="currentColor" aria-hidden="true">
  <title>bunny</title>
  <!-- Ears (outer) -->
  <ellipse cx="38" cy="32" rx="10" ry="28" transform="rotate(-12 38 32)" />
  <ellipse cx="82" cy="32" rx="10" ry="28" transform="rotate(12 82 32)" />
  <!-- Inner ears, soft -->
  <ellipse cx="38" cy="36" rx="4" ry="18" transform="rotate(-12 38 36)" opacity="0.35" />
  <ellipse cx="82" cy="36" rx="4" ry="18" transform="rotate(12 82 36)" opacity="0.35" />
  <!-- Head -->
  <ellipse cx="60" cy="82" rx="34" ry="32" />
  <!-- Cheeks -->
  <circle cx="38" cy="94" r="8" opacity="0.15" />
  <circle cx="82" cy="94" r="8" opacity="0.15" />
  <!-- Eyes: render as "holes" via small circles at reduced opacity against the head -->
  <circle cx="48" cy="80" r="2.6" opacity="0.85" fill="#000" />
  <circle cx="72" cy="80" r="2.6" opacity="0.85" fill="#000" />
  <!-- Eye highlights -->
  <circle cx="48.8" cy="79.2" r="0.8" fill="#fff" opacity="0.9" />
  <circle cx="72.8" cy="79.2" r="0.8" fill="#fff" opacity="0.9" />
  <!-- Nose -->
  <path d="M58 92 Q60 95 62 92 Q61 96 60 96 Q59 96 58 92 Z" opacity="0.85" fill="#000" />
  <!-- Mouth -->
  <path d="M54 99 Q60 104 66 99" fill="none" stroke="#000" stroke-opacity="0.7" stroke-width="1.75" stroke-linecap="round" />
  <!-- Whiskers -->
  <g stroke="currentColor" stroke-width="1.2" stroke-linecap="round" opacity="0.55" fill="none">
    <line x1="30" y1="96" x2="44" y2="98" />
    <line x1="30" y1="101" x2="44" y2="101" />
    <line x1="76" y1="98" x2="90" y2="96" />
    <line x1="76" y1="101" x2="90" y2="101" />
  </g>
  <!-- Paws -->
  <ellipse cx="46" cy="124" rx="8" ry="6" />
  <ellipse cx="74" cy="124" rx="8" ry="6" />
</svg>
